<?xml version="1.0" encoding="utf-8"?>
<!-- Generator: Adobe Illustrator 16.0.4, SVG Export Plug-In . SVG Version: 6.00 Build 0)  -->
<!DOCTYPE svg PUBLIC "-//W3C//DTD SVG 1.1//EN" "http://www.w3.org/Graphics/SVG/1.1/DTD/svg11.dtd">
<svg version="1.1" id="Layer_1" xmlns="http://www.w3.org/2000/svg" xmlns:xlink="http://www.w3.org/1999/xlink" x="0px" y="0px"
	 width="257.209px" height="67.148px" viewBox="0 0 257.209 67.148" enable-background="new 0 0 257.209 67.148"
	 xml:space="preserve">
<g>
	<g>
		<path fill="#333333" d="M113.524,53.572h-5.754c-0.646,0-1.175-0.161-1.591-0.484c-0.415-0.322-0.713-0.723-0.898-1.203
			l-2.987-8.159H85.728l-2.987,8.159c-0.147,0.424-0.438,0.812-0.872,1.162c-0.435,0.351-0.963,0.526-1.591,0.526h-5.78
			l15.711-39.995h7.605L113.524,53.572z M87.635,38.47h12.752l-4.869-13.304c-0.221-0.59-0.465-1.285-0.732-2.088
			c-0.269-0.802-0.531-1.674-0.788-2.615c-0.259,0.941-0.512,1.817-0.762,2.628c-0.249,0.812-0.493,1.521-0.731,2.129L87.635,38.47z
			"/>
		<path fill="#333333" d="M125.445,37.945v15.627h-7.441V13.578h12.198c2.728,0,5.065,0.281,7.012,0.844
			c1.944,0.562,3.54,1.351,4.785,2.365c1.243,1.014,2.157,2.226,2.736,3.637c0.581,1.411,0.871,2.965,0.871,4.661
			c0,1.346-0.196,2.619-0.594,3.817c-0.396,1.199-0.969,2.287-1.715,3.264c-0.747,0.977-1.668,1.834-2.767,2.572
			c-1.098,0.738-2.345,1.328-3.747,1.771c0.94,0.535,1.751,1.299,2.434,2.295l10.014,14.771h-6.693
			c-0.646,0-1.194-0.129-1.646-0.388c-0.453-0.258-0.834-0.627-1.147-1.106l-8.408-12.806c-0.314-0.479-0.66-0.82-1.037-1.023
			c-0.379-0.203-0.937-0.304-1.673-0.304H125.445z M125.445,32.607h4.646c1.401,0,2.623-0.175,3.664-0.525
			c1.041-0.351,1.899-0.834,2.572-1.453c0.673-0.618,1.176-1.351,1.509-2.199c0.331-0.848,0.497-1.779,0.497-2.793
			c0-2.029-0.669-3.586-2.006-4.675c-1.336-1.087-3.379-1.631-6.125-1.631h-4.757V32.607z"/>
		<path fill="#333333" d="M180.624,44.14c0.404,0,0.755,0.158,1.05,0.471l2.933,3.181c-1.623,2.01-3.619,3.55-5.987,4.619
			c-2.371,1.069-5.215,1.604-8.533,1.604c-2.97,0-5.639-0.507-8.007-1.521c-2.37-1.014-4.394-2.425-6.071-4.232
			c-1.679-1.807-2.964-3.963-3.858-6.472c-0.895-2.508-1.343-5.246-1.343-8.215c0-3.005,0.498-5.757,1.494-8.256
			c0.995-2.499,2.396-4.651,4.203-6.459c1.809-1.807,3.971-3.213,6.486-4.218c2.519-1.005,5.297-1.507,8.34-1.507
			c2.969,0,5.563,0.476,7.786,1.424c2.222,0.95,4.126,2.209,5.711,3.776l-2.49,3.457c-0.146,0.222-0.336,0.415-0.565,0.581
			c-0.23,0.166-0.549,0.25-0.953,0.25c-0.427,0-0.858-0.166-1.302-0.498c-0.441-0.332-1.006-0.692-1.687-1.079
			c-0.683-0.387-1.544-0.747-2.586-1.079c-1.041-0.332-2.365-0.498-3.97-0.498c-1.88,0-3.609,0.328-5.188,0.981
			c-1.574,0.655-2.93,1.591-4.063,2.808c-1.135,1.217-2.02,2.697-2.656,4.439c-0.635,1.742-0.954,3.701-0.954,5.877
			c0,2.25,0.319,4.25,0.954,6.002c0.637,1.751,1.499,3.226,2.586,4.425c1.089,1.199,2.37,2.115,3.845,2.751
			c1.476,0.636,3.062,0.955,4.758,0.955c1.013,0,1.932-0.055,2.752-0.166c0.821-0.111,1.577-0.287,2.269-0.526
			c0.691-0.24,1.346-0.548,1.963-0.927c0.617-0.377,1.232-0.843,1.84-1.397c0.185-0.165,0.378-0.298,0.581-0.4
			C180.162,44.191,180.383,44.14,180.624,44.14z"/>
		<path fill="#333333" d="M223.482,53.572h-7.495V36.091h-18.752v17.481h-7.497V13.578h7.497v17.204h18.752V13.578h7.495V53.572z"/>
		<path fill="#333333" d="M257.209,13.578v5.918h-17.729v11.092h13.969v5.726h-13.969v11.312h17.729v5.947h-25.224V13.578H257.209z"
			/>
	</g>
	<polygon fill="#8DD4D9" points="33.221,0 26.044,3.904 53.414,18.785 33.22,29.768 13.027,18.785 19.443,15.295 33.22,22.789 
		33.226,22.785 40.399,18.884 19.443,7.494 0,18.659 33.22,37.57 59.54,23.254 59.54,45.031 33.22,59.346 6.901,45.031 
		6.901,38.042 33.22,52.356 52.694,41.765 52.694,33.963 33.22,44.555 0.047,26.146 0.047,49.105 33.22,67.148 66.394,49.105 
		66.394,18.043 	"/>
</g>
</svg>
