<?xml version="1.0" encoding="utf-8"?>
<!-- Generator: Adobe Illustrator 16.0.4, SVG Export Plug-In . SVG Version: 6.00 Build 0)  -->
<!DOCTYPE svg PUBLIC "-//W3C//DTD SVG 1.1//EN" "http://www.w3.org/Graphics/SVG/1.1/DTD/svg11.dtd">
<svg version="1.1" id="Layer_1" xmlns="http://www.w3.org/2000/svg" xmlns:xlink="http://www.w3.org/1999/xlink" x="0px" y="0px"
	 width="257.841px" height="89.36px" viewBox="0 0 257.841 89.36" enable-background="new 0 0 257.841 89.36" xml:space="preserve">
<g>
	<g>
		<g>
			<path fill="#333333" d="M113.524,53.572h-5.754c-0.646,0-1.175-0.161-1.591-0.484c-0.415-0.321-0.713-0.723-0.898-1.202
				l-2.987-8.159H85.728l-2.987,8.159c-0.147,0.424-0.438,0.812-0.872,1.161c-0.435,0.352-0.963,0.526-1.591,0.526h-5.78
				l15.711-39.995h7.605L113.524,53.572z M87.635,38.47h12.752l-4.869-13.305c-0.221-0.59-0.465-1.285-0.732-2.088
				c-0.269-0.802-0.531-1.674-0.788-2.615c-0.259,0.941-0.512,1.817-0.762,2.628c-0.249,0.812-0.493,1.521-0.731,2.13L87.635,38.47z
				"/>
			<path fill="#333333" d="M125.445,37.945v15.627h-7.441V13.578h12.198c2.729,0,5.064,0.281,7.012,0.844
				c1.944,0.562,3.54,1.352,4.785,2.365c1.243,1.015,2.156,2.227,2.736,3.637c0.58,1.411,0.871,2.966,0.871,4.661
				c0,1.347-0.196,2.619-0.594,3.817c-0.396,1.199-0.97,2.287-1.716,3.264c-0.747,0.978-1.668,1.834-2.767,2.572
				c-1.098,0.738-2.346,1.328-3.747,1.771c0.94,0.535,1.751,1.3,2.434,2.296l10.015,14.771h-6.693c-0.646,0-1.193-0.129-1.646-0.388
				c-0.453-0.258-0.834-0.627-1.146-1.106l-8.408-12.806c-0.314-0.479-0.66-0.82-1.037-1.023c-0.379-0.203-0.938-0.304-1.673-0.304
				h-3.182V37.945z M125.445,32.607h4.646c1.401,0,2.623-0.175,3.664-0.525s1.898-0.834,2.572-1.453
				c0.673-0.617,1.176-1.351,1.509-2.198c0.331-0.849,0.497-1.779,0.497-2.793c0-2.029-0.669-3.586-2.006-4.676
				c-1.336-1.087-3.379-1.631-6.125-1.631h-4.757V32.607z"/>
			<path fill="#333333" d="M180.624,44.14c0.404,0,0.755,0.157,1.05,0.471l2.933,3.181c-1.623,2.011-3.619,3.55-5.986,4.619
				c-2.371,1.069-5.215,1.604-8.533,1.604c-2.97,0-5.639-0.508-8.007-1.521c-2.37-1.014-4.394-2.425-6.071-4.231
				c-1.679-1.808-2.964-3.964-3.857-6.473c-0.896-2.508-1.344-5.246-1.344-8.215c0-3.005,0.498-5.757,1.494-8.256
				c0.995-2.499,2.396-4.651,4.203-6.459c1.809-1.807,3.971-3.213,6.486-4.218c2.519-1.005,5.297-1.507,8.34-1.507
				c2.969,0,5.562,0.476,7.786,1.424c2.222,0.949,4.126,2.209,5.711,3.775l-2.49,3.457c-0.146,0.223-0.336,0.415-0.565,0.581
				s-0.549,0.25-0.953,0.25c-0.426,0-0.857-0.166-1.301-0.498c-0.441-0.332-1.006-0.691-1.688-1.079
				c-0.684-0.387-1.544-0.747-2.586-1.079c-1.041-0.331-2.365-0.497-3.971-0.497c-1.879,0-3.608,0.327-5.188,0.98
				c-1.574,0.655-2.93,1.591-4.062,2.808c-1.135,1.218-2.021,2.697-2.656,4.439c-0.635,1.742-0.954,3.701-0.954,5.877
				c0,2.25,0.319,4.25,0.954,6.002c0.637,1.751,1.499,3.227,2.586,4.425c1.089,1.199,2.369,2.115,3.845,2.751
				c1.476,0.637,3.062,0.955,4.759,0.955c1.012,0,1.932-0.055,2.752-0.166c0.82-0.11,1.576-0.287,2.269-0.525
				c0.69-0.24,1.346-0.549,1.963-0.928c0.616-0.377,1.231-0.843,1.84-1.396c0.185-0.165,0.378-0.298,0.581-0.4
				C180.162,44.191,180.383,44.14,180.624,44.14z"/>
			<path fill="#333333" d="M223.481,53.572h-7.494V36.091h-18.752v17.481h-7.498V13.578h7.498v17.204h18.752V13.578h7.494V53.572z"
				/>
			<path fill="#333333" d="M257.209,13.578v5.918h-17.729v11.092h13.97v5.727h-13.97v11.312h17.729v5.947h-25.224V13.578H257.209z"
				/>
		</g>
		<polygon fill="#8DD4D9" points="33.221,0 26.044,3.904 53.414,18.785 33.22,29.768 13.027,18.785 19.443,15.295 33.22,22.789 
			33.226,22.785 40.399,18.884 19.443,7.494 0,18.659 33.22,37.57 59.54,23.254 59.54,45.031 33.22,59.346 6.901,45.031 
			6.901,38.042 33.22,52.356 52.694,41.765 52.694,33.963 33.22,44.555 0.047,26.146 0.047,49.105 33.22,67.148 66.394,49.105 
			66.394,18.043 		"/>
	</g>
	<g>
		<path fill="#8DD4D9" d="M191.685,89.072l3.258-26.748h4.338l-1.458,11.934c0.864-1.212,1.827-2.171,2.89-2.88
			c1.062-0.708,2.192-1.062,3.393-1.062c0.768,0,1.467,0.141,2.097,0.423s1.167,0.705,1.611,1.269
			c0.443,0.564,0.786,1.278,1.026,2.143c0.239,0.864,0.359,1.878,0.359,3.042c0,1.044-0.107,2.07-0.324,3.078
			c-0.216,1.008-0.521,1.962-0.918,2.861c-0.396,0.9-0.866,1.729-1.412,2.484c-0.547,0.756-1.155,1.41-1.827,1.962
			c-0.673,0.552-1.39,0.984-2.151,1.296c-0.762,0.312-1.551,0.468-2.367,0.468c-0.948,0-1.791-0.188-2.528-0.566
			c-0.738-0.378-1.359-0.892-1.863-1.539l-0.145,0.612c-0.096,0.432-0.258,0.744-0.485,0.936c-0.229,0.192-0.588,0.288-1.08,0.288
			H191.685z M202.377,73.808c-0.492,0-0.99,0.168-1.494,0.504s-0.993,0.798-1.468,1.386c-0.474,0.588-0.912,1.281-1.313,2.079
			c-0.402,0.798-0.747,1.653-1.035,2.564l-0.54,4.41c0.408,0.444,0.876,0.756,1.404,0.937c0.527,0.18,1.05,0.27,1.565,0.27
			c0.792,0,1.513-0.245,2.16-0.737c0.648-0.492,1.203-1.135,1.665-1.927s0.819-1.683,1.071-2.673s0.378-1.982,0.378-2.979
			c0-1.296-0.21-2.26-0.63-2.89S203.133,73.808,202.377,73.808z"/>
		<path fill="#8DD4D9" d="M226.922,74.888c0,0.827-0.165,1.584-0.495,2.268s-0.922,1.296-1.773,1.836s-2.007,1.005-3.465,1.396
			c-1.458,0.39-3.315,0.699-5.571,0.927v0.233c0,2.904,1.23,4.356,3.69,4.356c0.527,0,0.996-0.051,1.404-0.153
			c0.407-0.102,0.765-0.225,1.07-0.369c0.307-0.144,0.582-0.306,0.828-0.485c0.246-0.181,0.474-0.342,0.685-0.486
			c0.209-0.144,0.416-0.267,0.62-0.369c0.204-0.102,0.426-0.152,0.666-0.152c0.145,0,0.288,0.033,0.433,0.099
			c0.144,0.066,0.264,0.165,0.359,0.297l1.135,1.368c-0.637,0.636-1.261,1.188-1.872,1.656c-0.612,0.468-1.236,0.852-1.872,1.151
			c-0.637,0.301-1.309,0.522-2.017,0.666c-0.708,0.145-1.481,0.216-2.321,0.216c-1.08,0-2.059-0.183-2.935-0.549
			c-0.876-0.365-1.626-0.882-2.25-1.548s-1.106-1.47-1.449-2.412c-0.342-0.941-0.513-1.995-0.513-3.159
			c0-0.972,0.105-1.926,0.315-2.861c0.21-0.937,0.513-1.824,0.909-2.664c0.396-0.84,0.882-1.614,1.458-2.322
			c0.575-0.708,1.227-1.319,1.952-1.836c0.727-0.516,1.524-0.918,2.395-1.206s1.803-0.432,2.799-0.432
			c0.972,0,1.821,0.138,2.547,0.414c0.726,0.275,1.332,0.633,1.818,1.07c0.485,0.438,0.849,0.928,1.089,1.468
			S226.922,74.372,226.922,74.888z M220.855,73.448c-0.601,0-1.158,0.123-1.674,0.369c-0.517,0.246-0.981,0.591-1.396,1.035
			c-0.414,0.443-0.773,0.975-1.08,1.593c-0.306,0.618-0.549,1.293-0.729,2.025c1.487-0.204,2.685-0.426,3.591-0.666
			s1.608-0.505,2.106-0.792c0.497-0.288,0.828-0.595,0.989-0.918c0.162-0.324,0.243-0.673,0.243-1.045
			c0-0.18-0.039-0.365-0.117-0.558c-0.078-0.191-0.197-0.362-0.359-0.513s-0.372-0.276-0.63-0.378
			C221.542,73.499,221.228,73.448,220.855,73.448z"/>
		<path fill="#8DD4D9" d="M230.233,85.31c0-0.084,0-0.183,0-0.297s0.009-0.282,0.026-0.505c0.019-0.222,0.048-0.516,0.09-0.882
			c0.042-0.365,0.1-0.837,0.171-1.413l1.026-8.279h-1.746c-0.204,0-0.369-0.063-0.495-0.189s-0.188-0.314-0.188-0.566
			c0-0.013,0.003-0.036,0.009-0.072s0.015-0.117,0.027-0.243c0.012-0.126,0.032-0.315,0.062-0.567s0.069-0.605,0.117-1.062
			l2.808-0.486l1.477-5.04c0.071-0.239,0.194-0.426,0.369-0.558c0.174-0.132,0.387-0.198,0.639-0.198h2.376l-0.72,5.814h4.464
			l-0.378,3.168h-4.482l-0.99,8.046c-0.06,0.492-0.104,0.882-0.135,1.17s-0.054,0.513-0.072,0.675
			c-0.018,0.162-0.029,0.276-0.035,0.342c-0.007,0.066-0.01,0.111-0.01,0.136c0,0.456,0.111,0.815,0.333,1.079
			c0.223,0.265,0.537,0.396,0.945,0.396c0.252,0,0.468-0.033,0.648-0.099c0.18-0.066,0.335-0.136,0.468-0.207
			c0.132-0.072,0.249-0.142,0.351-0.207c0.102-0.066,0.201-0.1,0.297-0.1c0.132,0,0.237,0.033,0.315,0.1
			c0.078,0.065,0.146,0.165,0.207,0.297l0.954,2.16c-0.66,0.54-1.393,0.947-2.196,1.224s-1.614,0.414-2.43,0.414
			c-1.309,0-2.344-0.354-3.105-1.062C230.668,87.591,230.269,86.594,230.233,85.31z"/>
		<path fill="#8DD4D9" d="M255.609,89.072h-2.341c-0.539,0-0.918-0.126-1.134-0.378s-0.323-0.57-0.323-0.954l0.144-2.52
			c-0.816,1.271-1.734,2.276-2.754,3.015c-1.021,0.738-2.143,1.106-3.366,1.106c-0.696,0-1.347-0.138-1.953-0.413
			c-0.605-0.276-1.134-0.688-1.584-1.233s-0.804-1.229-1.062-2.052c-0.259-0.822-0.388-1.785-0.388-2.89
			c0-1.104,0.139-2.178,0.414-3.222c0.276-1.044,0.669-2.025,1.18-2.943c0.51-0.918,1.125-1.761,1.845-2.528
			c0.72-0.769,1.526-1.428,2.421-1.98c0.894-0.552,1.86-0.98,2.898-1.287c1.037-0.306,2.133-0.459,3.284-0.459
			c0.828,0,1.659,0.061,2.493,0.181s1.653,0.336,2.457,0.647L255.609,89.072z M247.581,85.706c0.492,0,0.975-0.168,1.449-0.504
			c0.474-0.336,0.921-0.801,1.341-1.395c0.42-0.595,0.81-1.293,1.17-2.098c0.36-0.804,0.672-1.668,0.936-2.592l0.702-5.58
			c-0.323-0.036-0.624-0.054-0.899-0.054c-0.996,0-1.92,0.228-2.772,0.684c-0.852,0.456-1.59,1.071-2.214,1.846
			c-0.624,0.773-1.113,1.674-1.467,2.699c-0.354,1.026-0.531,2.109-0.531,3.249c0,1.296,0.204,2.244,0.612,2.845
			C246.314,85.406,246.873,85.706,247.581,85.706z"/>
	</g>
</g>
</svg>
