<?xml version="1.0" encoding="utf-8"?>
<!-- Generator: Adobe Illustrator 16.0.4, SVG Export Plug-In . SVG Version: 6.00 Build 0)  -->
<!DOCTYPE svg PUBLIC "-//W3C//DTD SVG 1.1//EN" "http://www.w3.org/Graphics/SVG/1.1/DTD/svg11.dtd">
<svg version="1.1" id="Layer_1" xmlns="http://www.w3.org/2000/svg" xmlns:xlink="http://www.w3.org/1999/xlink" x="0px" y="0px"
	 width="216.848px" height="40.991px" viewBox="-121.25 -41.825 216.848 40.991"
	 enable-background="new -121.25 -41.825 216.848 40.991" xml:space="preserve">
<g>
	<g>
		<g>
			<path fill="#88DBDF" d="M-75.833-37.473v22.299h-6.385c0.062-0.588,0.096-1.186,0.096-1.791c0-9.029-7.034-16.35-15.711-16.35
				s-15.709,7.32-15.709,16.35c0,0.605,0.033,1.203,0.095,1.791h-6.385v-22.299H-75.833z"/>
		</g>
	</g>
	<g>
		<path fill="#88DBDF" d="M-114.583-3.134l2.3,2.3l7.716-7.701v-1.219l0.416-0.433c1.76,1.513,4.044,2.423,6.528,2.423
			c5.54,0,10.031-4.49,10.031-10.03c0-5.539-4.491-10.03-10.031-10.03s-10.03,4.491-10.03,10.03c0,2.483,0.91,4.769,2.423,6.528
			l-0.433,0.416h-1.219L-114.583-3.134z M-104.568-17.794c0-3.843,3.103-6.944,6.944-6.944s6.942,3.102,6.942,6.944
			s-3.101,6.944-6.942,6.944S-104.568-13.952-104.568-17.794z"/>
	</g>
	<g>
		<rect x="-119.833" y="-41.825" fill="#88DBDF" width="2" height="4.833"/>
	</g>
	<g>
		<rect x="-77.833" y="-41.825" fill="#88DBDF" width="2" height="4.833"/>
	</g>
	<g>
		<rect x="-121.25" y="-41.825" fill="#88DBDF" width="46.917" height="2"/>
	</g>
	<g>
		<rect x="-113.833" y="-41.825" fill="#88DBDF" width="2" height="4.833"/>
	</g>
	<g>
		<rect x="-107.833" y="-41.825" fill="#88DBDF" width="2" height="4.833"/>
	</g>
	<g>
		<rect x="-101.833" y="-41.825" fill="#88DBDF" width="2" height="4.833"/>
	</g>
	<g>
		<rect x="-95.833" y="-41.825" fill="#88DBDF" width="2" height="4.833"/>
	</g>
	<g>
		<rect x="-89.833" y="-41.825" fill="#88DBDF" width="2" height="4.833"/>
	</g>
	<g>
		<rect x="-83.833" y="-41.825" fill="#88DBDF" width="2" height="4.833"/>
	</g>
	<g>
		<g>
			<path fill="#333333" d="M-49.853-15.323h-3.472l-1.989-5.611h-7.956l-2.021,5.611h-3.441l7.75-21.7h3.35L-49.853-15.323z
				 M-56.402-24.034l-2.89-8.122l-2.892,8.122H-56.402z"/>
		</g>
		<g>
			<path fill="#333333" d="M-38.073-14.889c-1.591,0-3.048-0.273-4.371-0.821c-1.323-0.547-2.46-1.317-3.41-2.31
				c-0.951-0.992-1.693-2.18-2.23-3.564c-0.538-1.385-0.808-2.914-0.808-4.588c0-1.675,0.266-3.203,0.791-4.589
				c0.527-1.384,1.271-2.572,2.232-3.564c0.961-0.992,2.097-1.762,3.41-2.31c1.312-0.547,2.764-0.821,4.354-0.821
				c2.294,0,4.319,0.424,6.076,1.271l-0.341,3.101c-2.335-0.848-4.247-1.271-5.735-1.271c-1.137,0-2.148,0.201-3.038,0.603
				c-0.889,0.401-1.643,0.968-2.263,1.698c-0.62,0.731-1.09,1.596-1.41,2.595c-0.321,0.999-0.479,2.095-0.479,3.289
				c0,1.194,0.16,2.29,0.479,3.289c0.32,0.999,0.791,1.863,1.41,2.594c0.62,0.73,1.38,1.297,2.279,1.698
				c0.897,0.402,1.927,0.603,3.084,0.603c1.486,0,3.379-0.413,5.673-1.24l0.341,3.101C-33.826-15.302-35.841-14.889-38.073-14.889z"
				/>
		</g>
		<g>
			<path fill="#333333" d="M-20.496-15.323h-8.062v-21.7h8.062c1.57,0,3.018,0.248,4.34,0.744c1.322,0.496,2.46,1.209,3.41,2.139
				c0.95,0.931,1.688,2.067,2.217,3.41c0.527,1.344,0.79,2.863,0.79,4.558c0,1.674-0.263,3.183-0.79,4.525
				c-0.527,1.344-1.261,2.485-2.201,3.426c-0.938,0.941-2.07,1.658-3.395,2.154S-18.904-15.323-20.496-15.323z M-20.496-33.922
				h-4.773v15.5h4.773c2.312,0,4.087-0.689,5.314-2.069c1.229-1.379,1.847-3.272,1.847-5.681c0-2.409-0.615-4.302-1.847-5.682
				C-16.409-33.233-18.182-33.922-20.496-33.922z"/>
		</g>
		<g>
			<path fill="#333333" d="M12.085-15.323H8.799v-9.765H-2.795v9.765h-3.286v-21.7h3.286v8.773H8.799v-8.773h3.286V-15.323z"/>
		</g>
		<g>
			<path fill="#88DBDF" d="M25.879-22.608H16.27v-2.759h9.609V-22.608z"/>
		</g>
		<g>
			<path fill="#88DBDF" d="M46.019-15.323h-3.503l-4.712-8.339h-4.392v8.339h-3.35v-21.7h7.349c2.376,0,4.216,0.486,5.519,1.457
				c1.302,0.972,1.952,2.594,1.952,4.867c0,2.77-1.295,4.826-3.886,6.169L46.019-15.323z M37.054-34.294h-3.642v7.532h4.106
				c1.203,0,2.157-0.31,2.862-0.93c0.705-0.62,1.059-1.581,1.059-2.883C41.441-33.055,39.979-34.294,37.054-34.294z"/>
		</g>
		<g>
			<path fill="#88DBDF" d="M60.878-22.669H50.214c0.33,3.286,2.106,4.929,5.332,4.929c1.592,0,3.09-0.341,4.495-1.023l0.31,2.573
				c-1.674,0.786-3.379,1.178-5.114,1.178c-1.303,0-2.47-0.206-3.503-0.619c-1.032-0.414-1.9-0.977-2.604-1.689
				c-0.703-0.714-1.24-1.561-1.612-2.542c-0.371-0.981-0.558-2.041-0.558-3.178c0-1.096,0.176-2.124,0.525-3.085
				c0.353-0.961,0.849-1.798,1.487-2.511c0.64-0.713,1.421-1.271,2.341-1.674s1.948-0.604,3.085-0.604
				c0.973,0,1.864,0.154,2.683,0.465c0.814,0.31,1.52,0.749,2.106,1.317c0.588,0.568,1.043,1.256,1.364,2.062
				c0.32,0.806,0.48,1.705,0.48,2.697c0,0.31-0.018,0.604-0.049,0.883C60.955-23.212,60.919-22.938,60.878-22.669z M54.399-28.188
				c-2.148,0-3.481,1.116-3.999,3.349h7.408c0-1.013-0.284-1.824-0.852-2.434C56.388-27.882,55.535-28.188,54.399-28.188z"/>
		</g>
		<g>
			<path fill="#88DBDF" d="M71.325-15.013c-0.767,0-1.553-0.16-2.356-0.48c-0.806-0.319-1.478-0.77-2.015-1.348v9.021h-3.133
				v-22.785h2.572l0.312,1.705c0.661-0.682,1.343-1.188,2.046-1.519c0.702-0.331,1.568-0.496,2.604-0.496
				c1.098,0,2.077,0.212,2.945,0.636c0.868,0.424,1.606,1.002,2.217,1.735c0.609,0.734,1.074,1.581,1.396,2.542
				c0.319,0.961,0.479,1.979,0.479,3.054c0,1.137-0.154,2.186-0.465,3.146c-0.31,0.961-0.765,1.798-1.364,2.511
				c-0.599,0.713-1.338,1.271-2.216,1.674C73.469-15.214,72.461-15.013,71.325-15.013z M71.046-28.188
				c-0.62,0-1.188,0.119-1.705,0.356c-0.517,0.238-0.961,0.584-1.333,1.039c-0.372,0.454-0.666,1.007-0.884,1.658
				c-0.217,0.651-0.325,1.38-0.325,2.186c0,1.674,0.396,2.961,1.193,3.859c0.796,0.899,1.812,1.349,3.054,1.349
				c0.62,0,1.188-0.129,1.705-0.388c0.517-0.258,0.95-0.62,1.302-1.085c0.352-0.465,0.625-1.018,0.821-1.658
				c0.194-0.64,0.295-1.333,0.295-2.077c0-1.55-0.362-2.811-1.085-3.782C73.36-27.702,72.348-28.188,71.046-28.188z"/>
		</g>
		<g>
			<path fill="#88DBDF" d="M87.94-15.013c-1.155,0-2.206-0.201-3.146-0.604c-0.94-0.402-1.741-0.961-2.402-1.674
				c-0.662-0.713-1.173-1.55-1.534-2.511c-0.36-0.961-0.543-2.01-0.543-3.146c0-1.116,0.178-2.159,0.527-3.131
				c0.351-0.972,0.857-1.813,1.519-2.526c0.662-0.713,1.464-1.276,2.402-1.689c0.94-0.413,2-0.62,3.178-0.62
				c1.18,0,2.237,0.207,3.18,0.62c0.939,0.413,1.746,0.981,2.418,1.705c0.671,0.724,1.183,1.565,1.532,2.526
				c0.353,0.961,0.527,1.999,0.527,3.115c0,1.116-0.176,2.154-0.527,3.115c-0.351,0.961-0.855,1.798-1.519,2.512
				c-0.662,0.713-1.468,1.275-2.418,1.689C90.183-15.219,89.118-15.013,87.94-15.013z M91.195-26.792
				c-0.783-0.931-1.868-1.396-3.255-1.396c-1.403,0-2.488,0.465-3.255,1.396c-0.765,0.93-1.146,2.211-1.146,3.844
				c0,1.633,0.377,2.909,1.132,3.828c0.754,0.92,1.845,1.38,3.271,1.38c1.428,0,2.521-0.465,3.286-1.396
				c0.767-0.93,1.146-2.2,1.146-3.812C92.373-24.56,91.98-25.842,91.195-26.792z"/>
		</g>
	</g>
</g>
</svg>
