<?xml version="1.0" standalone="no"?>
<!DOCTYPE svg PUBLIC "-//W3C//DTD SVG 20010904//EN"
 "http://www.w3.org/TR/2001/REC-SVG-20010904/DTD/svg10.dtd">
<svg version="1.0" xmlns="http://www.w3.org/2000/svg"
 width="700.000000pt" height="700.000000pt" viewBox="0 0 700.000000 700.000000"
 preserveAspectRatio="xMidYMid meet">
<metadata>
Created by potrace 1.11, written by Peter Selinger 2001-2013
</metadata>
<g transform="translate(0.000000,700.000000) scale(0.100000,-0.100000)"
fill="#000000" stroke="none">
<path d="M3455 6861 c-28 -16 -455 -249 -605 -329 -36 -19 -66 -36 -68 -37 -3
-2 64 -40 218 -123 36 -19 79 -42 95 -52 17 -10 75 -41 130 -70 55 -29 105
-56 110 -60 6 -4 60 -33 120 -65 61 -32 115 -61 120 -65 6 -4 44 -25 85 -48
41 -22 102 -54 135 -72 33 -18 236 -128 450 -245 215 -117 471 -256 570 -310
99 -54 205 -111 235 -128 30 -16 73 -40 95 -51 297 -161 385 -210 385 -216 0
-3 -24 -18 -52 -33 -58 -29 -193 -102 -278 -149 -67 -38 -111 -62 -215 -118
-44 -24 -102 -55 -130 -70 -45 -25 -198 -108 -330 -180 -51 -28 -626 -340
-876 -476 -75 -41 -141 -74 -148 -74 -6 0 -112 55 -234 121 -122 67 -251 137
-287 157 -36 19 -87 47 -115 62 -56 31 -71 39 -385 210 -124 67 -247 135 -275
150 -27 15 -106 58 -175 95 -185 100 -247 134 -330 179 -41 23 -101 55 -132
71 -115 59 -124 45 114 175 117 63 261 141 322 174 l110 59 45 -25 c25 -14 78
-42 116 -63 39 -20 84 -45 100 -55 17 -10 71 -39 120 -65 101 -53 180 -96 305
-165 47 -26 121 -66 165 -90 44 -24 173 -94 286 -156 113 -62 217 -118 230
-124 21 -10 46 1 217 94 106 59 194 106 196 106 1 0 71 38 155 85 85 47 158
85 162 85 25 0 2 20 -63 55 -40 21 -86 46 -103 55 -16 9 -70 38 -120 65 -49
26 -94 51 -100 55 -5 4 -59 33 -120 65 -60 32 -114 61 -120 65 -10 7 -37 22
-270 147 -331 179 -952 516 -970 527 -11 7 -68 38 -126 69 l-107 57 -288 -166
c-159 -91 -307 -176 -329 -189 -64 -36 -505 -289 -685 -393 -91 -52 -183 -105
-205 -117 -247 -140 -435 -252 -436 -260 -1 -5 151 -96 337 -202 187 -106 347
-197 357 -203 20 -12 486 -278 557 -318 25 -14 122 -69 215 -122 94 -53 190
-108 215 -122 25 -14 142 -81 260 -149 118 -67 233 -132 255 -144 22 -13 117
-66 210 -120 94 -54 188 -108 210 -120 22 -12 173 -97 335 -190 162 -92 315
-179 340 -193 41 -23 46 -24 70 -10 15 8 71 39 126 68 54 29 140 76 189 103
144 79 186 102 260 142 39 21 117 64 175 95 58 32 132 72 165 90 74 40 174 94
240 130 134 74 258 141 340 185 50 27 121 65 158 87 38 21 70 38 72 38 1 0 46
25 100 55 53 30 98 55 100 55 1 0 119 64 261 141 143 78 300 163 350 190 l90
48 0 -1093 c-1 -1129 -1 -1126 -38 -1126 -5 0 -57 -26 -116 -59 -59 -32 -138
-75 -175 -95 -37 -20 -82 -45 -100 -55 -18 -10 -68 -37 -112 -61 -44 -24 -154
-83 -245 -133 -91 -50 -183 -100 -205 -112 -22 -12 -101 -55 -175 -95 -74 -40
-155 -84 -180 -98 -25 -13 -74 -40 -110 -60 -36 -19 -112 -61 -170 -92 -58
-32 -132 -72 -165 -90 -33 -18 -132 -72 -220 -120 -88 -48 -218 -119 -290
-157 -126 -68 -160 -87 -291 -159 l-61 -34 -424 231 c-233 127 -458 249 -499
272 -41 22 -142 77 -225 122 -190 104 -260 142 -360 195 -44 23 -89 48 -100
55 -11 7 -56 31 -100 55 -44 23 -102 55 -130 70 -27 15 -99 54 -160 87 -60 33
-126 69 -145 80 -19 10 -142 77 -272 148 l-238 128 0 179 c-1 98 -1 234 -1
303 0 69 0 147 1 174 l0 49 98 -53 c53 -29 297 -161 542 -294 245 -133 452
-245 460 -251 8 -5 38 -21 65 -36 28 -14 97 -52 155 -84 135 -74 229 -125 310
-168 36 -19 91 -50 123 -68 32 -19 60 -34 61 -34 2 0 39 -20 82 -43 44 -24
117 -64 164 -89 47 -25 197 -107 334 -182 137 -75 253 -136 258 -136 5 0 59
28 121 61 62 34 155 84 207 112 52 27 100 53 105 57 6 4 40 24 78 44 106 57
188 102 237 129 25 13 180 98 345 187 165 89 318 173 340 185 22 12 69 38 105
57 148 80 228 124 285 155 33 19 78 43 101 54 l40 21 -1 392 c-1 215 -3 393
-4 395 0 2 -11 -3 -23 -11 -13 -8 -52 -31 -88 -50 -64 -35 -343 -187 -470
-256 -36 -19 -87 -47 -115 -62 -27 -15 -126 -69 -220 -120 -93 -51 -197 -107
-230 -125 -33 -18 -80 -44 -105 -57 -25 -14 -175 -96 -335 -183 -159 -87 -308
-168 -331 -180 l-41 -23 -134 75 c-74 41 -165 92 -204 113 -38 20 -144 79
-235 130 -91 51 -190 106 -220 122 -114 63 -153 85 -470 261 -179 99 -343 190
-365 202 -22 13 -182 101 -355 197 -173 97 -346 192 -385 213 -38 21 -87 49
-107 62 -21 13 -42 23 -47 23 -5 0 -14 7 -21 15 -7 9 -15 13 -18 10 -3 -3 -10
-1 -16 4 -9 7 -236 135 -491 275 -22 13 -91 51 -152 85 -62 34 -116 60 -120
58 -6 -4 -10 -2260 -4 -2299 1 -6 54 -36 241 -136 36 -19 79 -42 95 -52 17
-10 62 -34 100 -55 39 -21 93 -50 120 -65 28 -15 156 -85 285 -155 305 -166
271 -147 745 -405 226 -122 424 -230 440 -240 17 -9 71 -39 120 -65 50 -27
128 -69 175 -95 47 -26 121 -66 165 -90 92 -49 172 -93 230 -125 22 -12 69
-38 105 -57 36 -20 146 -79 245 -133 99 -54 203 -110 231 -125 29 -16 56 -25
60 -20 5 4 50 29 99 55 50 26 95 51 100 55 6 4 55 31 110 60 55 29 114 60 130
70 17 10 59 33 95 52 36 19 121 66 190 103 69 37 154 84 190 103 36 19 100 55
142 79 43 23 79 43 81 43 2 0 50 26 108 58 57 32 145 80 194 106 50 27 113 61
140 76 28 15 149 81 270 147 121 67 252 137 290 158 39 21 120 65 180 98 140
76 194 106 275 150 36 19 193 104 350 190 157 85 309 167 338 182 l52 27 0
1567 0 1566 -297 162 c-164 89 -329 178 -368 199 -38 21 -87 48 -107 61 -21
13 -40 23 -42 23 -3 0 -583 314 -831 450 -27 15 -81 44 -120 65 -38 21 -90 49
-115 63 -25 14 -74 40 -110 60 -36 19 -85 46 -110 60 -25 13 -74 40 -110 60
-36 19 -112 60 -170 92 -200 109 -225 123 -290 158 -36 19 -112 60 -170 92
-58 32 -136 74 -175 95 -38 21 -90 49 -115 63 -155 85 -208 112 -221 111 -8 0
-27 -8 -44 -18z"/>
</g>
</svg>
