<?xml version="1.0" encoding="utf-8"?>
<!-- Generator: Adobe Illustrator 16.0.4, SVG Export Plug-In . SVG Version: 6.00 Build 0)  -->
<!DOCTYPE svg PUBLIC "-//W3C//DTD SVG 1.1//EN" "http://www.w3.org/Graphics/SVG/1.1/DTD/svg11.dtd">
<svg version="1.1" id="Layer_1" xmlns="http://www.w3.org/2000/svg" xmlns:xlink="http://www.w3.org/1999/xlink" x="0px" y="0px"
	 width="159.785px" height="71.25px" viewBox="0 0 159.785 71.25" enable-background="new 0 0 159.785 71.25" xml:space="preserve">
<g>
	<defs>
		<rect id="SVGID_1_" x="0.001" y="-5.919" width="159.784" height="83.086"/>
	</defs>
	<clipPath id="SVGID_2_">
		<use xlink:href="#SVGID_1_"  overflow="visible"/>
	</clipPath>
	<path clip-path="url(#SVGID_2_)" fill="#333333" d="M75.549,5.169v9.778h-1.241v-1.682c-0.528,0.643-1.119,1.123-1.774,1.447
		c-0.656,0.323-1.374,0.486-2.153,0.486c-1.386,0-2.566-0.502-3.545-1.504c-0.981-1.006-1.469-2.226-1.469-3.664
		c0-1.407,0.493-2.614,1.484-3.613c0.986-1.001,2.175-1.501,3.565-1.501c0.803,0,1.529,0.17,2.18,0.511
		c0.65,0.343,1.221,0.855,1.712,1.538V5.169H75.549z M70.521,6.13c-0.701,0-1.346,0.171-1.94,0.515
		c-0.592,0.346-1.062,0.828-1.413,1.45c-0.351,0.623-0.526,1.282-0.526,1.976c0,0.688,0.177,1.346,0.53,1.975
		c0.353,0.63,0.828,1.119,1.424,1.469c0.594,0.349,1.232,0.525,1.916,0.525c0.688,0,1.341-0.174,1.957-0.521
		c0.616-0.348,1.092-0.816,1.423-1.409c0.332-0.593,0.499-1.261,0.499-2.002c0-1.132-0.372-2.077-1.119-2.837
		C72.527,6.511,71.61,6.13,70.521,6.13"/>
	<path clip-path="url(#SVGID_2_)" fill="#333333" d="M78.218,5.168h1.258v4.565c0,1.114,0.061,1.88,0.18,2.3
		c0.181,0.6,0.524,1.074,1.031,1.42c0.508,0.35,1.111,0.524,1.816,0.524c0.7,0,1.294-0.17,1.785-0.51
		c0.489-0.338,0.826-0.783,1.011-1.336c0.128-0.376,0.189-1.176,0.189-2.399V5.168h1.286v4.8c0,1.349-0.159,2.364-0.471,3.046
		c-0.315,0.684-0.788,1.218-1.421,1.605c-0.632,0.385-1.425,0.58-2.378,0.58s-1.748-0.195-2.387-0.58
		c-0.639-0.388-1.115-0.926-1.429-1.619c-0.314-0.692-0.472-1.733-0.472-3.123V5.168z"/>
	<path clip-path="url(#SVGID_2_)" fill="#333333" d="M94.488,6.237l-0.81,0.837c-0.672-0.654-1.33-0.98-1.974-0.98
		c-0.407,0-0.757,0.135-1.05,0.406c-0.291,0.269-0.437,0.583-0.437,0.943c0,0.318,0.119,0.62,0.359,0.908
		c0.238,0.294,0.746,0.638,1.512,1.033c0.938,0.485,1.574,0.955,1.912,1.402c0.331,0.456,0.496,0.968,0.496,1.538
		c0,0.802-0.282,1.484-0.847,2.04c-0.566,0.557-1.271,0.835-2.115,0.835c-0.566,0-1.106-0.121-1.616-0.368
		c-0.515-0.245-0.938-0.583-1.275-1.014l0.792-0.9c0.644,0.723,1.324,1.087,2.045,1.087c0.504,0,0.933-0.163,1.287-0.486
		c0.354-0.325,0.533-0.704,0.533-1.141c0-0.361-0.116-0.68-0.353-0.962c-0.232-0.275-0.762-0.623-1.585-1.043
		c-0.883-0.455-1.482-0.906-1.802-1.348c-0.316-0.444-0.478-0.949-0.478-1.52c0-0.743,0.253-1.36,0.76-1.851
		c0.508-0.49,1.149-0.737,1.925-0.737C92.667,4.916,93.574,5.356,94.488,6.237"/>
	<polygon clip-path="url(#SVGID_2_)" fill="#333333" points="97.813,1.537 99.07,1.537 99.07,5.169 101.065,5.169 101.065,6.256 
		99.07,6.256 99.07,14.947 97.813,14.947 97.813,6.256 96.096,6.256 96.096,5.169 97.813,5.169 	"/>
	<path clip-path="url(#SVGID_2_)" fill="#333333" d="M102.477,5.168h1.286v1.429c0.384-0.563,0.786-0.985,1.214-1.262
		c0.425-0.28,0.867-0.419,1.329-0.419c0.348,0,0.72,0.112,1.114,0.333l-0.656,1.059c-0.264-0.112-0.484-0.17-0.662-0.17
		c-0.423,0-0.826,0.173-1.216,0.519c-0.388,0.344-0.685,0.878-0.892,1.603c-0.154,0.557-0.231,1.685-0.231,3.38v3.307h-1.286V5.168z
		"/>
	<path clip-path="url(#SVGID_2_)" fill="#333333" d="M108.924,1.143c0.286,0,0.533,0.101,0.735,0.304
		c0.203,0.203,0.304,0.45,0.304,0.738c0,0.282-0.101,0.523-0.304,0.728c-0.202,0.204-0.449,0.305-0.735,0.305
		c-0.28,0-0.52-0.101-0.722-0.305c-0.203-0.205-0.307-0.446-0.307-0.728c0-0.288,0.104-0.535,0.307-0.738
		C108.404,1.244,108.644,1.143,108.924,1.143 M108.301,5.167h1.258v9.778h-1.258V5.167z"/>
	<path clip-path="url(#SVGID_2_)" fill="#333333" d="M121.917,5.169v9.778h-1.239v-1.682c-0.526,0.643-1.119,1.123-1.775,1.447
		c-0.656,0.323-1.373,0.486-2.151,0.486c-1.387,0-2.564-0.502-3.546-1.504c-0.98-1.006-1.47-2.226-1.47-3.664
		c0-1.407,0.493-2.614,1.484-3.613c0.986-1.001,2.179-1.501,3.564-1.501c0.805,0,1.531,0.17,2.183,0.511
		c0.65,0.343,1.222,0.855,1.711,1.538V5.169H121.917z M116.891,6.13c-0.702,0-1.348,0.171-1.939,0.515
		c-0.594,0.346-1.064,0.828-1.414,1.45c-0.351,0.623-0.526,1.282-0.526,1.976c0,0.688,0.176,1.346,0.531,1.975
		c0.352,0.63,0.827,1.119,1.422,1.469c0.594,0.349,1.233,0.525,1.915,0.525c0.689,0,1.344-0.174,1.958-0.521
		c0.617-0.348,1.092-0.816,1.422-1.409c0.335-0.593,0.5-1.261,0.5-2.002c0-1.132-0.372-2.077-1.118-2.837
		C118.896,6.511,117.979,6.13,116.891,6.13"/>
	<path clip-path="url(#SVGID_2_)" fill="#333333" d="M124.749,5.168h1.26v1.751c0.502-0.669,1.06-1.172,1.673-1.503
		c0.607-0.333,1.274-0.5,1.995-0.5c0.73,0,1.379,0.188,1.942,0.557c0.569,0.371,0.985,0.872,1.257,1.5
		c0.269,0.63,0.403,1.611,0.403,2.94v5.032h-1.258v-4.664c0-1.125-0.048-1.878-0.141-2.255c-0.146-0.647-0.425-1.134-0.839-1.461
		c-0.414-0.326-0.953-0.489-1.618-0.489c-0.76,0-1.442,0.251-2.046,0.753c-0.601,0.505-0.997,1.127-1.189,1.872
		c-0.121,0.485-0.18,1.371-0.18,2.661v3.584h-1.26V5.168z"/>
	<path clip-path="url(#SVGID_2_)" fill="#333333" d="M75.298,25.504l-0.996,0.62c-0.865-1.144-2.04-1.716-3.531-1.716
		c-1.192,0-2.179,0.384-2.966,1.147c-0.787,0.768-1.182,1.697-1.182,2.794c0,0.713,0.182,1.382,0.544,2.011
		c0.362,0.627,0.859,1.116,1.489,1.464c0.632,0.347,1.341,0.521,2.125,0.521c1.435,0,2.608-0.572,3.52-1.718l0.996,0.655
		c-0.468,0.705-1.097,1.252-1.883,1.64c-0.789,0.387-1.687,0.581-2.693,0.581c-1.546,0-2.827-0.491-3.847-1.475
		c-1.018-0.982-1.528-2.177-1.528-3.584c0-0.947,0.239-1.826,0.714-2.638c0.476-0.815,1.132-1.448,1.965-1.904
		c0.832-0.453,1.766-0.68,2.794-0.68c0.648,0,1.273,0.097,1.875,0.295c0.602,0.198,1.114,0.456,1.533,0.772
		C74.648,24.608,75.005,25.013,75.298,25.504"/>
	<path clip-path="url(#SVGID_2_)" fill="#333333" d="M85.947,30.007l1.062,0.557c-0.349,0.685-0.748,1.235-1.204,1.654
		c-0.456,0.42-0.967,0.738-1.54,0.957c-0.571,0.218-1.213,0.329-1.933,0.329c-1.597,0-2.843-0.523-3.744-1.57
		c-0.9-1.045-1.35-2.227-1.35-3.543c0-1.243,0.382-2.348,1.143-3.317c0.964-1.234,2.259-1.853,3.878-1.853
		c1.666,0,2.998,0.633,3.993,1.895c0.707,0.896,1.066,2.01,1.079,3.344h-8.799c0.025,1.138,0.388,2.068,1.088,2.795
		c0.705,0.728,1.57,1.089,2.603,1.089c0.496,0,0.98-0.086,1.451-0.26c0.471-0.17,0.872-0.401,1.202-0.688
		C85.207,31.107,85.564,30.646,85.947,30.007 M85.947,27.373c-0.167-0.671-0.412-1.206-0.731-1.609
		c-0.323-0.4-0.746-0.725-1.273-0.97c-0.529-0.245-1.082-0.37-1.666-0.37c-0.96,0-1.785,0.309-2.475,0.927
		c-0.505,0.449-0.886,1.123-1.143,2.022H85.947z"/>
	<path clip-path="url(#SVGID_2_)" fill="#333333" d="M89.677,23.473h1.261v1.752c0.502-0.67,1.059-1.172,1.673-1.503
		c0.61-0.335,1.275-0.501,1.994-0.501c0.731,0,1.379,0.187,1.942,0.557c0.57,0.372,0.987,0.872,1.257,1.501
		c0.27,0.63,0.403,1.61,0.403,2.939v5.033H96.95v-4.665c0-1.125-0.048-1.878-0.142-2.254c-0.145-0.65-0.425-1.135-0.839-1.461
		c-0.413-0.327-0.953-0.489-1.618-0.489c-0.759,0-1.442,0.25-2.045,0.753c-0.602,0.504-0.997,1.127-1.189,1.871
		c-0.121,0.485-0.18,1.371-0.18,2.66v3.585h-1.261V23.473z"/>
	<polygon clip-path="url(#SVGID_2_)" fill="#333333" points="102.001,19.842 103.258,19.842 103.258,23.474 105.256,23.474 
		105.256,24.561 103.258,24.561 103.258,33.252 102.001,33.252 102.001,24.561 100.285,24.561 100.285,23.474 102.001,23.474 	"/>
	<path clip-path="url(#SVGID_2_)" fill="#333333" d="M106.667,23.473h1.284v1.43c0.383-0.563,0.788-0.985,1.213-1.263
		c0.427-0.279,0.867-0.419,1.33-0.419c0.349,0,0.721,0.111,1.114,0.334l-0.656,1.06c-0.265-0.113-0.485-0.172-0.665-0.172
		c-0.419,0-0.824,0.174-1.213,0.519s-0.686,0.88-0.891,1.603c-0.155,0.558-0.232,1.685-0.232,3.38v3.308h-1.284V23.473z"/>
	<path clip-path="url(#SVGID_2_)" fill="#333333" d="M120.911,30.007l1.059,0.557c-0.346,0.685-0.746,1.235-1.202,1.654
		c-0.456,0.42-0.969,0.738-1.539,0.957c-0.57,0.218-1.215,0.329-1.934,0.329c-1.596,0-2.844-0.523-3.742-1.57
		c-0.901-1.045-1.353-2.227-1.353-3.543c0-1.243,0.384-2.348,1.146-3.317c0.964-1.234,2.259-1.853,3.878-1.853
		c1.666,0,2.996,0.633,3.991,1.895c0.709,0.896,1.07,2.01,1.081,3.344h-8.798c0.023,1.138,0.385,2.068,1.087,2.795
		c0.702,0.728,1.57,1.089,2.603,1.089c0.496,0,0.982-0.086,1.453-0.26c0.469-0.17,0.87-0.401,1.2-0.688
		C120.171,31.107,120.528,30.646,120.911,30.007 M120.911,27.373c-0.167-0.671-0.412-1.206-0.733-1.609
		c-0.321-0.4-0.746-0.725-1.273-0.97s-1.083-0.37-1.664-0.37c-0.96,0-1.785,0.309-2.475,0.927c-0.505,0.449-0.885,1.123-1.143,2.022
		H120.911z"/>
	<path clip-path="url(#SVGID_2_)" fill="#333333" d="M133.766,19.696v1.232c-0.463-0.199-0.858-0.296-1.187-0.296
		c-0.247,0-0.451,0.05-0.612,0.147c-0.161,0.099-0.262,0.214-0.306,0.343c-0.04,0.128-0.062,0.471-0.062,1.028v1.321h2.039v1.089
		h-2.041l-0.009,8.689h-1.258v-8.689h-1.285v-1.089h1.285v-1.527c0-0.701,0.066-1.201,0.194-1.501
		c0.128-0.301,0.349-0.542,0.656-0.724c0.308-0.183,0.68-0.273,1.118-0.273C132.707,19.447,133.195,19.53,133.766,19.696"/>
	<path clip-path="url(#SVGID_2_)" fill="#333333" d="M140.147,23.222c1.505,0,2.754,0.546,3.744,1.635
		c0.901,0.994,1.351,2.174,1.351,3.533c0,1.366-0.477,2.561-1.428,3.582c-0.949,1.021-2.173,1.531-3.667,1.531
		c-1.503,0-2.727-0.51-3.678-1.531s-1.428-2.216-1.428-3.582c0-1.355,0.447-2.531,1.351-3.525
		C137.382,23.77,138.634,23.222,140.147,23.222 M140.143,24.452c-1.047,0-1.946,0.388-2.698,1.159
		c-0.75,0.773-1.127,1.709-1.127,2.806c0,0.707,0.172,1.366,0.516,1.978c0.342,0.61,0.804,1.082,1.387,1.415
		c0.586,0.331,1.225,0.498,1.923,0.498c0.695,0,1.337-0.167,1.92-0.498c0.583-0.333,1.046-0.805,1.39-1.415
		c0.344-0.611,0.513-1.271,0.513-1.978c0-1.097-0.376-2.032-1.131-2.806C142.077,24.84,141.185,24.452,140.143,24.452"/>
	<path clip-path="url(#SVGID_2_)" fill="#333333" d="M147.094,23.473h1.286v1.43c0.383-0.563,0.786-0.985,1.213-1.263
		c0.425-0.279,0.868-0.419,1.33-0.419c0.348,0,0.72,0.111,1.114,0.334l-0.656,1.06c-0.264-0.113-0.485-0.172-0.663-0.172
		c-0.423,0-0.825,0.174-1.215,0.519c-0.389,0.345-0.686,0.88-0.893,1.603c-0.154,0.558-0.23,1.685-0.23,3.38v3.308h-1.286V23.473z"
		/>
	<path clip-path="url(#SVGID_2_)" fill="#333333" d="M75.566,38.002v13.555h-1.24v-1.681c-0.529,0.642-1.119,1.122-1.775,1.446
		c-0.656,0.326-1.373,0.485-2.153,0.485c-1.383,0-2.566-0.502-3.543-1.505c-0.981-1.004-1.471-2.225-1.471-3.661
		c0-1.409,0.495-2.615,1.484-3.616c0.988-1,2.176-1.5,3.567-1.5c0.803,0,1.528,0.172,2.18,0.513c0.65,0.34,1.219,0.854,1.711,1.535
		v-5.571H75.566z M70.539,42.738c-0.702,0-1.347,0.172-1.939,0.519c-0.594,0.343-1.065,0.825-1.414,1.448
		c-0.353,0.623-0.526,1.282-0.526,1.976c0,0.687,0.176,1.345,0.531,1.975c0.351,0.629,0.827,1.118,1.422,1.469
		c0.596,0.348,1.233,0.523,1.917,0.523c0.688,0,1.342-0.174,1.958-0.519c0.616-0.349,1.091-0.817,1.422-1.409
		c0.331-0.596,0.498-1.263,0.498-2.005c0-1.131-0.372-2.076-1.118-2.837C72.545,43.119,71.627,42.738,70.539,42.738"/>
	<path clip-path="url(#SVGID_2_)" fill="#333333" d="M78.854,37.751c0.284,0,0.528,0.101,0.731,0.306
		c0.202,0.203,0.305,0.449,0.305,0.735c0,0.285-0.103,0.525-0.305,0.728c-0.203,0.204-0.447,0.309-0.731,0.309
		c-0.282,0-0.523-0.104-0.727-0.309c-0.203-0.202-0.304-0.442-0.304-0.728c0-0.286,0.101-0.532,0.304-0.735
		C78.331,37.852,78.572,37.751,78.854,37.751 M78.226,41.776h1.259v9.778h-1.259V41.776z"/>
	<path clip-path="url(#SVGID_2_)" fill="#333333" d="M90.532,41.776h1.257v7.795c0,1.369-0.119,2.374-0.359,3.01
		c-0.327,0.898-0.899,1.591-1.715,2.076c-0.817,0.485-1.794,0.729-2.939,0.729c-0.839,0-1.592-0.121-2.262-0.357
		c-0.667-0.236-1.211-0.557-1.631-0.955c-0.419-0.401-0.807-0.984-1.158-1.755h1.367c0.372,0.646,0.851,1.127,1.438,1.438
		c0.588,0.312,1.317,0.467,2.187,0.467c0.858,0,1.583-0.157,2.173-0.479c0.593-0.318,1.014-0.72,1.267-1.204
		c0.249-0.485,0.377-1.264,0.377-2.343v-0.505c-0.475,0.6-1.054,1.06-1.737,1.381c-0.684,0.319-1.409,0.481-2.179,0.481
		c-0.898,0-1.743-0.222-2.536-0.671c-0.79-0.445-1.402-1.046-1.834-1.801c-0.432-0.754-0.647-1.584-0.647-2.491
		c0-0.904,0.225-1.748,0.674-2.529c0.451-0.782,1.072-1.401,1.867-1.856c0.795-0.454,1.632-0.683,2.515-0.683
		c0.731,0,1.415,0.152,2.045,0.454c0.635,0.301,1.247,0.801,1.833,1.497V41.776z M86.819,42.738c-0.711,0-1.374,0.174-1.986,0.519
		c-0.61,0.343-1.09,0.819-1.438,1.428s-0.521,1.265-0.521,1.974c0,1.072,0.36,1.959,1.079,2.66c0.717,0.702,1.651,1.053,2.795,1.053
		c1.156,0,2.086-0.349,2.791-1.045c0.704-0.692,1.057-1.608,1.057-2.741c0-0.737-0.161-1.393-0.486-1.972
		c-0.324-0.579-0.782-1.035-1.375-1.373C88.141,42.906,87.505,42.738,86.819,42.738"/>
	<path clip-path="url(#SVGID_2_)" fill="#333333" d="M94.923,37.751c0.286,0,0.53,0.101,0.733,0.306
		c0.201,0.203,0.303,0.449,0.303,0.735c0,0.285-0.102,0.525-0.303,0.728c-0.203,0.204-0.447,0.309-0.733,0.309
		c-0.282,0-0.522-0.104-0.726-0.309c-0.205-0.202-0.306-0.442-0.306-0.728c0-0.286,0.101-0.532,0.306-0.735
		C94.4,37.852,94.641,37.751,94.923,37.751 M94.3,41.776h1.257v9.778H94.3V41.776z"/>
	<polygon clip-path="url(#SVGID_2_)" fill="#333333" points="99.269,38.146 100.525,38.146 100.525,41.776 102.523,41.776 
		102.523,42.862 100.525,42.862 100.525,51.555 99.269,51.555 99.269,42.862 97.553,42.862 97.553,41.776 99.269,41.776 	"/>
	<path clip-path="url(#SVGID_2_)" fill="#333333" d="M114.154,41.776v9.78h-1.24v-1.681c-0.528,0.642-1.12,1.122-1.776,1.446
		c-0.656,0.326-1.375,0.485-2.151,0.485c-1.388,0-2.565-0.502-3.548-1.505c-0.98-1.004-1.469-2.225-1.469-3.661
		c0-1.409,0.493-2.615,1.483-3.616c0.987-1,2.179-1.5,3.57-1.5c0.799,0,1.528,0.172,2.177,0.513c0.65,0.34,1.223,0.854,1.714,1.535
		v-1.797H114.154z M109.124,42.738c-0.7,0-1.348,0.172-1.939,0.519c-0.592,0.343-1.064,0.825-1.414,1.448s-0.526,1.282-0.526,1.976
		c0,0.687,0.177,1.345,0.531,1.975c0.353,0.629,0.828,1.118,1.422,1.469c0.595,0.348,1.235,0.523,1.919,0.523
		c0.688,0,1.34-0.174,1.954-0.519c0.619-0.349,1.092-0.817,1.425-1.409c0.333-0.596,0.498-1.263,0.498-2.005
		c0-1.131-0.372-2.076-1.119-2.837C111.13,43.119,110.212,42.738,109.124,42.738"/>
	<rect x="116.793" y="38.003" clip-path="url(#SVGID_2_)" fill="#333333" width="1.261" height="13.554"/>
	<path clip-path="url(#SVGID_2_)" fill="#333333" d="M65.805,56.307h1.259v5.529c0.509-0.671,1.071-1.172,1.682-1.507
		c0.611-0.334,1.271-0.497,1.986-0.497c0.731,0,1.381,0.186,1.946,0.558c0.566,0.372,0.983,0.869,1.254,1.497
		c0.268,0.623,0.403,1.607,0.403,2.941v5.034h-1.258v-4.664c0-1.127-0.045-1.88-0.135-2.258c-0.156-0.646-0.438-1.133-0.851-1.461
		c-0.409-0.324-0.947-0.489-1.612-0.489c-0.759,0-1.443,0.253-2.045,0.756c-0.603,0.502-0.999,1.127-1.19,1.869
		c-0.12,0.479-0.18,1.365-0.18,2.659v3.588h-1.259V56.307z"/>
	<path clip-path="url(#SVGID_2_)" fill="#333333" d="M76.871,60.083h1.258v4.565c0,1.116,0.061,1.882,0.18,2.302
		c0.181,0.598,0.523,1.07,1.03,1.419c0.508,0.348,1.112,0.521,1.814,0.521c0.703,0,1.297-0.167,1.786-0.506s0.828-0.784,1.014-1.335
		c0.125-0.378,0.188-1.181,0.188-2.401v-4.565h1.286v4.8c0,1.348-0.158,2.366-0.472,3.046c-0.317,0.682-0.79,1.217-1.42,1.605
		c-0.632,0.385-1.427,0.579-2.378,0.579c-0.953,0-1.748-0.194-2.386-0.579c-0.639-0.389-1.114-0.928-1.431-1.618
		c-0.313-0.692-0.471-1.731-0.471-3.123V60.083z"/>
	<path clip-path="url(#SVGID_2_)" fill="#333333" d="M88.214,60.083h1.257v1.691c0.438-0.626,0.89-1.081,1.352-1.368
		c0.634-0.383,1.306-0.574,2.006-0.574c0.474,0,0.923,0.093,1.348,0.277c0.429,0.185,0.777,0.434,1.046,0.742
		c0.27,0.308,0.504,0.751,0.702,1.325c0.416-0.767,0.94-1.348,1.568-1.748c0.627-0.398,1.305-0.597,2.025-0.597
		c0.676,0,1.275,0.169,1.79,0.512c0.518,0.341,0.903,0.815,1.154,1.431c0.248,0.609,0.376,1.525,0.376,2.75v5.338h-1.286v-5.338
		c0-1.049-0.075-1.771-0.224-2.163c-0.15-0.392-0.405-0.709-0.767-0.947c-0.361-0.24-0.793-0.359-1.295-0.359
		c-0.608,0-1.167,0.178-1.67,0.539c-0.506,0.359-0.874,0.839-1.106,1.438c-0.231,0.598-0.351,1.598-0.351,3v3.83h-1.257v-5.007
		c0-1.182-0.075-1.982-0.22-2.402c-0.148-0.426-0.403-0.763-0.77-1.018c-0.365-0.256-0.799-0.381-1.304-0.381
		c-0.581,0-1.123,0.176-1.631,0.526c-0.507,0.35-0.881,0.82-1.123,1.415c-0.242,0.593-0.365,1.502-0.365,2.725v4.142h-1.257V60.083z
		"/>
	<path clip-path="url(#SVGID_2_)" fill="#333333" d="M115.232,60.081v9.781h-1.239v-1.681c-0.528,0.642-1.121,1.121-1.777,1.446
		c-0.656,0.324-1.373,0.485-2.151,0.485c-1.388,0-2.564-0.5-3.547-1.507c-0.98-1.004-1.469-2.224-1.469-3.661
		c0-1.409,0.492-2.613,1.481-3.613c0.988-1,2.18-1.5,3.57-1.5c0.803,0,1.53,0.169,2.179,0.512c0.647,0.341,1.223,0.854,1.714,1.536
		v-1.799H115.232z M110.201,61.046c-0.698,0-1.345,0.169-1.938,0.515c-0.595,0.346-1.066,0.828-1.414,1.451
		c-0.35,0.621-0.526,1.279-0.526,1.976c0,0.686,0.177,1.347,0.531,1.975c0.353,0.628,0.827,1.117,1.423,1.467
		c0.594,0.35,1.234,0.526,1.917,0.526c0.689,0,1.341-0.174,1.955-0.522c0.619-0.346,1.093-0.815,1.423-1.409
		c0.335-0.592,0.5-1.259,0.5-2.001c0-1.133-0.372-2.076-1.118-2.837C112.21,61.427,111.291,61.046,110.201,61.046"/>
	<path clip-path="url(#SVGID_2_)" fill="#333333" d="M118.062,60.083h1.26v1.753c0.503-0.671,1.06-1.174,1.672-1.507
		c0.609-0.332,1.276-0.497,1.996-0.497c0.729,0,1.378,0.186,1.942,0.558c0.568,0.372,0.986,0.869,1.257,1.499
		c0.27,0.632,0.403,1.609,0.403,2.939v5.034h-1.257v-4.666c0-1.125-0.048-1.878-0.142-2.256c-0.145-0.646-0.425-1.133-0.839-1.459
		c-0.414-0.328-0.953-0.491-1.618-0.491c-0.759,0-1.442,0.251-2.045,0.756c-0.602,0.504-0.998,1.125-1.189,1.869
		c-0.121,0.483-0.181,1.372-0.181,2.662v3.585h-1.26V60.083z"/>
	<path clip-path="url(#SVGID_2_)" fill="#333333" d="M129.726,56.056c0.286,0,0.53,0.103,0.735,0.306
		c0.202,0.205,0.304,0.449,0.304,0.735c0,0.282-0.102,0.527-0.304,0.729c-0.205,0.203-0.449,0.304-0.735,0.304
		c-0.28,0-0.524-0.101-0.728-0.304c-0.202-0.202-0.303-0.447-0.303-0.729c0-0.286,0.101-0.53,0.303-0.735
		C129.201,56.158,129.445,56.056,129.726,56.056 M129.101,60.083h1.259v9.779h-1.259V60.083z"/>
	<polygon clip-path="url(#SVGID_2_)" fill="#333333" points="134.069,56.453 135.329,56.453 135.329,60.083 137.323,60.083 
		137.323,61.171 135.329,61.171 135.329,69.862 134.069,69.862 134.069,61.171 132.354,61.171 132.354,60.083 134.069,60.083 	"/>
	<path clip-path="url(#SVGID_2_)" fill="#333333" d="M139.647,56.056c0.285,0,0.532,0.103,0.734,0.306
		c0.203,0.205,0.307,0.449,0.307,0.735c0,0.282-0.104,0.527-0.307,0.729c-0.202,0.203-0.449,0.304-0.734,0.304
		c-0.28,0-0.522-0.101-0.725-0.304c-0.203-0.202-0.304-0.447-0.304-0.729c0-0.286,0.101-0.53,0.304-0.735
		C139.125,56.158,139.367,56.056,139.647,56.056 M139.024,60.083h1.257v9.779h-1.257V60.083z"/>
	<path clip-path="url(#SVGID_2_)" fill="#333333" d="M151.13,66.618l1.06,0.558c-0.349,0.682-0.749,1.233-1.204,1.653
		c-0.457,0.419-0.968,0.738-1.538,0.956c-0.569,0.22-1.215,0.33-1.935,0.33c-1.597,0-2.843-0.524-3.742-1.57
		c-0.9-1.045-1.351-2.229-1.351-3.547c0-1.24,0.38-2.346,1.142-3.314c0.968-1.235,2.26-1.854,3.88-1.854
		c1.667,0,2.997,0.632,3.992,1.897c0.71,0.893,1.067,2.009,1.081,3.343h-8.799c0.021,1.136,0.386,2.067,1.09,2.794
		c0.7,0.727,1.565,1.089,2.599,1.089c0.495,0,0.984-0.084,1.455-0.259c0.47-0.174,0.87-0.404,1.198-0.69
		C150.39,67.717,150.747,67.255,151.13,66.618 M151.13,63.985c-0.167-0.675-0.414-1.21-0.733-1.612
		c-0.321-0.4-0.747-0.723-1.275-0.969c-0.525-0.247-1.081-0.37-1.662-0.37c-0.96,0-1.786,0.309-2.478,0.928
		c-0.502,0.449-0.883,1.122-1.142,2.023H151.13z"/>
	<path clip-path="url(#SVGID_2_)" fill="#333333" d="M159.776,61.151l-0.811,0.836c-0.671-0.651-1.33-0.979-1.972-0.979
		c-0.408,0-0.759,0.135-1.052,0.406c-0.29,0.27-0.436,0.583-0.436,0.943c0,0.317,0.122,0.619,0.358,0.907
		c0.24,0.293,0.748,0.639,1.514,1.032c0.938,0.487,1.574,0.954,1.913,1.403c0.328,0.456,0.493,0.97,0.493,1.537
		c0,0.804-0.282,1.483-0.845,2.041c-0.566,0.557-1.271,0.837-2.116,0.837c-0.566,0-1.104-0.126-1.616-0.37
		c-0.514-0.246-0.938-0.583-1.272-1.016l0.79-0.899c0.643,0.724,1.323,1.087,2.045,1.087c0.505,0,0.935-0.16,1.286-0.484
		c0.354-0.324,0.533-0.705,0.533-1.14c0-0.361-0.117-0.684-0.353-0.966c-0.233-0.274-0.762-0.621-1.583-1.041
		c-0.886-0.456-1.483-0.903-1.804-1.347c-0.317-0.445-0.478-0.949-0.478-1.52c0-0.742,0.254-1.361,0.76-1.853
		c0.509-0.491,1.152-0.737,1.924-0.737C157.956,59.83,158.863,60.271,159.776,61.151"/>
	<path clip-path="url(#SVGID_2_)" fill="#333333" d="M44.405,37.209c-8.057,0-11.398,5.655-11.398,5.655V27.552
		c3.001,3.888,7.694,6.401,12.982,6.401c4.522,0,8.615-1.83,11.581-4.787l-2.301-2.301c-2.38,2.367-5.657,3.83-9.28,3.83
		c-6.574,0-12.007-4.829-12.982-11.132V15.52c0.975-6.303,6.408-11.132,12.982-11.132c3.64,0,6.934,1.479,9.316,3.866l2.302-2.302
		c-2.97-2.978-7.078-4.821-11.618-4.821c-5.288,0-9.98,2.514-12.982,6.399V1.045h-3.515v6.737c-0.368-0.507-0.757-1.006-1.192-1.484
		c-3.167-3.485-7.159-5.23-11.975-5.23c-4.839,0-8.838,1.753-12.007,5.258C1.439,9.508,0,13.262,0,17.594
		c0,4.367,1.523,8.184,4.564,11.451c3.041,3.267,6.96,4.9,11.76,4.9c4.778,0,8.688-1.634,11.731-4.9
		c0.53-0.57,0.999-1.163,1.436-1.768v16.668c-0.368-0.507-0.757-1.004-1.192-1.481c-3.167-3.488-7.159-5.229-11.975-5.229
		c-4.839,0-8.838,1.753-12.007,5.256C1.439,45.672,0,49.429,0,53.758c0,4.365,1.523,8.186,4.564,11.451
		c3.041,3.266,6.96,4.899,11.76,4.899c4.778,0,8.688-1.634,11.731-4.899c0.53-0.57,0.999-1.165,1.436-1.768v6.762h3.429V52.119
		c0-1.886,1.8-11.569,11.398-11.569s11.655,9.598,11.655,12.598v17.056h3.255V53.92C59.229,44.064,52.459,37.209,44.405,37.209
		 M16.435,30.761c-7.272,0-13.166-5.894-13.166-13.165c0-7.272,5.894-13.165,13.166-13.165c6.728,0,12.265,5.048,13.057,11.562
		v3.206C28.7,25.713,23.163,30.761,16.435,30.761 M16.435,66.925c-7.272,0-13.166-5.896-13.166-13.165
		c0-7.273,5.894-13.166,13.166-13.166c6.728,0,12.265,5.047,13.057,11.562v3.206C28.7,61.876,23.163,66.925,16.435,66.925"/>
</g>
</svg>
